<svg id="Ebene_1" data-name="Ebene 1" xmlns="http://www.w3.org/2000/svg" viewBox="0 0 527.16 491.82"><defs><style>.cls-1{fill:#ce836f;}.cls-1,.cls-2,.cls-3,.cls-4,.cls-5{stroke:#2f383f;stroke-miterlimit:10;}.cls-1,.cls-4,.cls-5{stroke-width:5px;}.cls-2,.cls-3,.cls-4{fill:none;}.cls-2{stroke-linecap:round;}.cls-2,.cls-3{stroke-width:4px;}.cls-5{fill:#cd836f;}.cls-6{fill:#c77051;}</style></defs><path class="cls-1" d="M500,551" transform="translate(-202.68 -232.03)"/><line class="cls-2" x1="463.46" y1="22" x2="463.46" y2="2"/><line class="cls-2" x1="453.46" y1="12" x2="473.46" y2="12"/><line class="cls-2" x1="131.55" y1="489.82" x2="131.55" y2="469.82"/><line class="cls-2" x1="121.55" y1="479.82" x2="141.55" y2="479.82"/><line class="cls-2" x1="65.09" y1="101.97" x2="65.09" y2="67.97"/><line class="cls-2" x1="48.09" y1="84.96" x2="82.09" y2="84.96"/><line class="cls-2" x1="508.16" y1="448.34" x2="508.16" y2="414.34"/><line class="cls-2" x1="491.16" y1="431.34" x2="525.16" y2="431.34"/><rect class="cls-3" x="243.94" y="529.18" width="45.47" height="15" transform="translate(-535.29 307.07) rotate(-63.81)"/><rect class="cls-3" x="273.47" y="508.69" width="10" height="8" transform="translate(52.19 -302.3) rotate(26.19)"/><rect class="cls-3" x="282" y="503.51" height="4" transform="translate(109.26 851.55) rotate(-153.81)"/><line class="cls-3" x1="74.17" y1="300.93" x2="60.71" y2="294.31"/><polygon class="cls-3" points="120.44 338.56 75.57 316.49 79.1 309.31 82.63 302.13 127.5 324.2 123.97 331.38 120.44 338.56"/><line class="cls-3" x1="79.1" y1="309.31" x2="123.97" y2="331.38"/><line class="cls-3" x1="95.64" y1="308.53" x2="88.58" y2="322.89"/><line class="cls-3" x1="115.93" y1="318.51" x2="108.87" y2="332.87"/><line class="cls-3" x1="79.1" y1="309.31" x2="71.82" y2="305.73"/><polygon class="cls-3" points="9.74 266.28 54.61 288.35 51.08 295.52 47.54 302.7 2.68 280.64 6.21 273.46 9.74 266.28"/><line class="cls-3" x1="51.07" y1="295.52" x2="6.21" y2="273.46"/><line class="cls-3" x1="34.53" y1="296.3" x2="41.59" y2="281.95"/><line class="cls-3" x1="14.24" y1="286.32" x2="21.3" y2="271.97"/><line class="cls-3" x1="51.07" y1="295.52" x2="58.36" y2="299.11"/><rect class="cls-4" x="249.75" y="556.61" width="10" height="8" transform="translate(70.91 -286.91) rotate(26.19)"/><path class="cls-4" d="M256.54,575.69c2.13-4.33.59-9.45-3.43-11.43s-9-.08-11.15,4.25Z" transform="translate(-202.68 -232.03)"/><line class="cls-4" x1="31.37" y1="348.68" x2="38.59" y2="341.75"/><line class="cls-4" x1="49.02" y1="357.36" x2="50.1" y2="347.42"/><line class="cls-4" x1="39.57" y1="354.29" x2="43.98" y2="345.32"/><circle class="cls-5" cx="297.32" cy="267.97" r="200"/><path class="cls-6" d="M697.5,498c0,110.46-88.42,200-197.5,200S302.5,608.46,302.5,498c0,0,28.84,104.12,197.5,102C671.07,598,697.5,498,697.5,498Z" transform="translate(-202.68 -232.03)"/><path class="cls-4" d="M624.34,343.35c44.2-3,78,7.18,92.17,31.65C746.88,427.61,674.57,526.23,555,595.26S313.87,677.61,283.49,625c-14.12-24.46-6.05-58.86,18.65-95.62" transform="translate(-202.68 -232.03)"/></svg>